<?xml version="1.0" encoding="utf-8"?>
<!-- Generator: Adobe Illustrator 27.3.1, SVG Export Plug-In . SVG Version: 6.00 Build 0)  -->
<svg version="1.1" id="Layer_1" xmlns="http://www.w3.org/2000/svg" xmlns:xlink="http://www.w3.org/1999/xlink" x="0px" y="0px"
	 viewBox="0 0 512 512" style="enable-background:new 0 0 512 512;" xml:space="preserve">
<style type="text/css">
	.st0{fill:#4051B5;}
	.st1{fill:#FFFFFF;}
</style>
<g>
	<g>
		<path class="st0" d="M255.9,466.5c-2.2,0-4.5-0.1-6.8-0.2c-10.4-0.7-21.4-2.8-33.7-6.3c-1.9-0.5-4-0.8-6.4-0.8
			c-1.4,0-2.7,0.1-3.8,0.2c-0.9,0.1-1.8,0.1-2.5,0.1c-0.3,0-0.6,0-0.8,0c-0.2,0-0.3,0-0.5,0c0,0-0.1,0-0.1,0c-0.7,0-1.4,0-2.1,0
			c-27.8,0-52.6-9.6-75.9-29.3c-8.2-6.9-15.1-15.6-21.8-27.3c-2.4-4.1-5.7-6-10.5-6c-0.2,0-0.3,0-0.5,0c-0.6,0-1.2,0-1.8,0
			c-13.4,0-23.6-3.1-32.1-9.8l-0.5-0.4c-3.2-2.5-4.5-3.8-4.5-5.9c0-2.8-1.6-5-4.7-6.4l-0.2-0.1c-8.7-4.1-16.9-10.1-25.9-18.8
			c-7.4-7.2-12.5-15.5-15.4-24.6c27.2-2.5,48.3-16.9,63.7-29.1c5.4-4.3,9.7-10.2,13-18c8.9-20.8,22-39.9,38.7-56.7
			c12.7-12.7,26.7-23.7,41.7-32.7c5.6-3.3,6.9-7.8,3.9-13.3c-1.4-2.5-2.4-5.3-3.6-8.2c-0.4-0.9-0.7-1.8-1.1-2.7
			c-1.6-3.9-1.2-4.7,2.7-6.6c4.9-2.3,10.3-3.9,17.7-5.1c5.5-0.9,11-1.4,16.4-1.4c8.7,0,17.4,1.2,26,3.5c1.6,0.4,2.9,0.7,4.1,0.7
			c5.7,0,6.4-5.4,6.7-8l0.1-0.6c1-8.1,4-15.9,6.8-22.6c7.2-17.2,17.4-32.5,30.2-45.3c3.2-3.2,3.7-6.7,1.5-10.6
			c-0.5-0.8-0.6-1.5-0.4-2.2c0.2-0.8,0.9-1.5,1.9-2l0.4-0.2c1.5-0.8,3.5-1.8,5.1-4c0.7-1,1.6-1.5,2.4-1.5c0.6,0,1.3,0.2,2,0.7
			c1.7,1,3.3,1.5,4.9,1.5c1.8,0,3.5-0.6,5.3-1.8c10.6-7.3,20.9-13.1,31.6-17.7c-0.9,14.7-4.3,30.3-10.8,48.7
			c-4.1,11.8-8.9,24.3-15.6,35.5c-3.2,5.4-6.9,10.8-10.8,16.1c0,0.1-0.1,0.1-0.2,0.2c-3.2,3.6-2.1,6.8-1.2,8.3
			c1.3,2.1,3.4,3.2,5.8,3.2c1,0,1.8-0.2,2.4-0.3c0.1,0,0.2-0.1,0.4-0.1c5.8-1.1,11.6-1.6,17.4-1.6c9.6,0,19.3,1.5,28.8,4.5
			c1.7,0.5,3.5,1.3,5.2,2.1c4,2,4.1,2.4,2.5,6.5l-0.7,1.6c-1.4,3.5-2.8,6.9-4.4,10.1c-3.3,6.6,0.7,10.4,3.3,12
			c8,4.9,14.9,9.6,21,14.3c24.2,18.9,42.2,40,55,64.4c1.4,2.6,2.7,5.4,3.9,8.1c1.3,2.8,2.7,5.8,4.2,8.6c5.1,9.8,13.6,15.5,21.8,21.1
			l1.8,1.2c8.3,5.7,17.3,10.4,26.7,14c6.4,2.5,12.8,3.5,19.1,4.5c1.1,0.2,2.1,0.3,3.2,0.5c0.5,0.1,0.8,0.2,1.1,0.2
			c-0.1,0.2-0.1,0.4-0.2,0.7c-3.4,9.9-9.3,18.5-18,26.4c-6.8,6.1-13.6,12-21.7,15.5c-4,1.8-6.2,4.8-6.8,9.2
			c-0.2,1.4-2.2,2.8-4.2,4.2c-8.7,6.3-18.8,9.5-30.8,9.9l-0.6,0c-0.2,0-0.4,0-0.6,0c0,0,0,0,0,0c0,0-0.1,0-0.1,0
			c-0.8-0.1-1.7-0.2-2.5-0.2c-7.1,0-10.4,5.7-11.5,7.6c-13.8,24-34.7,40.4-63.9,50.3c-9.7,3.3-20,4.8-31.6,4.8
			c-4.6,0-9.3-0.2-14.4-0.7c-0.6-0.1-1.2-0.1-1.8-0.1c-2.2,0-4.4,0.4-6.7,1.3C279.4,464.3,267.8,466.5,255.9,466.5z"/>
		<path class="st1" d="M331.8,50.3L331.8,50.3L331.8,50.3 M321.1,55.1c-1.5,11.8-4.6,24.4-9.7,38.8c-4.1,11.5-8.7,23.7-15.2,34.6
			c-3.1,5.2-6.6,10.4-10.4,15.6l0,0c-5.7,6.5-2.7,12.5-1.7,14.3c2.2,3.5,5.9,5.6,10.1,5.6c1.5,0,2.7-0.3,3.5-0.4c0.1,0,0.1,0,0.2,0
			c5.5-1,11-1.6,16.4-1.6c9.1,0,18.3,1.5,27.3,4.3c1.5,0.5,2.9,1.1,4.4,1.8c0.1,0,0.1,0.1,0.2,0.1c0,0,0,0.1,0,0.1l-0.7,1.6
			c-1.4,3.5-2.7,6.7-4.2,9.8c-3.6,7.2-1.6,14.3,5.2,18.5c7.9,4.8,14.6,9.4,20.5,14c23.6,18.4,41.2,39,53.6,62.8
			c1.3,2.5,2.5,5.1,3.8,7.9c1.4,2.9,2.7,5.9,4.3,8.8c5.7,10.9,15.1,17.3,23.4,22.9c0.6,0.4,1.2,0.8,1.8,1.2
			c8.6,5.9,17.9,10.8,27.7,14.6c6.2,2.4,12.4,3.5,18.4,4.5c-3.3,7.1-8.1,13.5-14.7,19.5c-6.8,6.1-13,11.4-20.4,14.7
			c-5.3,2.3-8.6,6.5-9.6,12.2c-0.5,0.5-1.6,1.2-2.3,1.8l-0.1,0c-7.8,5.7-17,8.6-28,8.9c-0.2,0-0.4,0-0.7,0c-0.1,0-0.1,0-0.2,0
			c-1-0.1-1.9-0.2-2.9-0.2c-6.7,0-12,3.4-15.8,10.1c-13.2,22.9-33.2,38.6-61.1,48c-9.1,3.1-19,4.6-30,4.6c-4.4,0-9-0.2-13.9-0.7
			c-0.8-0.1-1.5-0.1-2.3-0.1c-2.8,0-5.6,0.5-8.4,1.6c-11.4,4.2-22.5,6.3-33.8,6.3c-2.1,0-4.3-0.1-6.4-0.2
			c-10.1-0.7-20.8-2.7-32.7-6.1c-2.4-0.7-4.9-1-7.8-1c-1.5,0-2.9,0.1-4.2,0.2c-0.8,0.1-1.6,0.1-2.2,0.1c-0.2,0-0.3,0-0.3,0
			c-0.3,0-0.7-0.1-1-0.1c-0.1,0-0.1,0-0.2,0c-0.7,0-1.3,0-2,0c-26.9,0-50-8.9-72.7-28.1c-7.7-6.5-14.3-14.8-20.7-25.9
			c-3.2-5.7-8.2-8.5-14.9-8.5c-0.2,0-0.4,0-0.6,0c-0.6,0-1.2,0-1.7,0c-12.2,0-21.5-2.8-29.1-8.7l-0.5-0.4c-0.9-0.7-2.1-1.6-2.6-2.2
			c-0.1-2.8-1.2-7.7-7.6-10.6l-0.2-0.1c0,0,0,0,0,0c-8.2-3.8-15.9-9.5-24.5-17.9c-5.2-5.1-9.2-10.7-12-16.9
			c25.4-4.1,45.2-17.7,59.9-29.4c6.1-4.8,10.8-11.4,14.5-19.9c8.7-20.3,21.3-38.8,37.6-55.2c12.4-12.4,26.1-23.2,40.7-31.9
			c7.9-4.7,10-12.2,5.7-20c-1.2-2.2-2.2-4.8-3.3-7.6c-0.4-0.9-0.7-1.9-1.1-2.8c0,0,0-0.1-0.1-0.1c0.1,0,0.2-0.1,0.3-0.1
			c4.4-2.1,9.5-3.6,16.3-4.7c5.2-0.9,10.4-1.3,15.5-1.3c8.2,0,16.5,1.1,24.7,3.3c1.9,0.5,3.6,0.9,5.4,0.9c4.6,0,10.4-2.1,11.7-12.4
			l0.1-0.6c0.9-7.5,3.8-15,6.4-21.2c7-16.6,16.8-31.4,29.1-43.7c4.2-4.2,5.3-9.5,3.2-14.7c1.4-0.8,3.2-1.9,4.8-3.8
			c2.1,1,4.1,1.5,6.2,1.5c2.8,0,5.5-0.9,8.1-2.7C305.8,63.4,313.4,58.9,321.1,55.1 M330.3,40.5c-0.8,0-1.8,0.3-3.3,1
			c-12.2,5.1-23.7,11.6-34.6,19c-0.9,0.6-1.7,0.9-2.4,0.9c-0.7,0-1.5-0.3-2.4-0.8c-1.5-0.9-3.1-1.4-4.6-1.4c-2.5,0-4.7,1.2-6.5,3.6
			c-1,1.4-2.4,2-3.7,2.7c-4.3,2.3-5.9,6.9-3.5,11.1c1.1,2,0.9,3.1-0.7,4.6c-13.5,13.6-23.9,29.3-31.3,46.9
			c-3.2,7.7-6.1,15.6-7.1,23.9c-0.4,3.1-0.4,4.2-1.8,4.2c-0.6,0-1.5-0.2-2.9-0.6c-9-2.4-18.1-3.6-27.3-3.6c-5.7,0-11.4,0.5-17.2,1.4
			c-6.6,1.1-13,2.7-19,5.6c-6.3,3-7.7,6.6-5.1,13c1.6,3.9,2.9,7.8,4.9,11.5c1.8,3.3,0.9,4.8-2.1,6.6c-15.6,9.3-29.9,20.6-42.7,33.5
			c-16.9,16.9-30.3,36.3-39.7,58.3c-2.6,6.2-6.3,11.9-11.5,16.1c-18.1,14.4-37.6,26-61.4,28.1c-3.7,0.3-5.1,2.6-4,6.1
			c3.2,10.5,9.1,19.4,16.8,27c8.1,7.9,16.9,14.9,27.2,19.8c0.9,0.4,2.1,0.8,2.1,2c0,5,3.6,7.6,6.9,10.2
			c10.4,8.1,22.5,10.9,35.2,10.9c0.6,0,1.3,0,1.9,0c0.1,0,0.2,0,0.4,0c2.8,0,4.7,0.8,6.2,3.5c6.1,10.7,13.3,20.5,22.9,28.6
			c22.6,19.1,48,30.5,79.1,30.5c0.7,0,1.4,0,2.1,0c0.4,0,0.9,0.1,1.3,0.1c1.9,0,4-0.3,6.3-0.3c1.6,0,3.4,0.1,5,0.6
			c11.4,3.2,22.9,5.6,34.8,6.5c2.4,0.2,4.8,0.3,7.1,0.3c12.8,0,25.1-2.4,37.2-6.9c1.6-0.6,3.3-0.9,5-0.9c0.4,0,0.9,0,1.3,0.1
			c5,0.5,9.9,0.8,14.9,0.8c11.2,0,22.3-1.4,33.2-5.1c28.4-9.6,51.4-26.1,66.6-52.5c1.8-3.2,3.9-5.1,7.2-5.1c0.5,0,1.1,0,1.7,0.2
			c0.3,0.1,0.7,0.1,1,0.1c0.5,0,0.9,0,1.4,0c12.2-0.4,23.6-3.6,33.6-10.8c2.7-2,5.8-4.2,6.2-7.7c0.4-2.8,1.6-4.3,3.9-5.3
			c8.8-3.9,15.9-10,23-16.4c8.8-7.9,15.5-17.2,19.4-28.5c1.7-5,0.2-6.7-4.8-7.5c-7.2-1.2-14.4-2.1-21.3-4.8
			c-9.1-3.5-17.7-8-25.7-13.5c-8.4-5.7-17.1-11.2-22-20.5c-2.9-5.5-5.3-11.2-8.1-16.7c-13.7-26.3-33-47.9-56.3-66.1
			c-6.9-5.3-14.1-10.2-21.5-14.7c-2.5-1.5-2.7-3-1.5-5.5c1.9-3.9,3.5-8,5.2-12.1c2.6-6.5,1.5-9.6-4.8-12.8c-1.9-1-3.9-1.8-5.9-2.4
			c-10-3.2-20.1-4.8-30.3-4.8c-6.1,0-12.2,0.6-18.3,1.7c-0.6,0.1-1.3,0.3-1.8,0.3c-0.6,0-1.1-0.2-1.5-0.9c-0.8-1.2,0.5-2.1,1.1-2.9
			c4-5.3,7.7-10.9,11.1-16.6c6.9-11.5,11.6-23.8,16.1-36.4c6-17,10.4-34.2,11.2-52.3C332.1,41.8,331.8,40.5,330.3,40.5L330.3,40.5z"
			/>
	</g>
</g>
</svg>
