<?xml version="1.0" encoding="utf-8"?>
<!-- Generator: Adobe Illustrator 27.3.1, SVG Export Plug-In . SVG Version: 6.00 Build 0)  -->
<svg version="1.1" id="图层_1" xmlns="http://www.w3.org/2000/svg" xmlns:xlink="http://www.w3.org/1999/xlink" x="0px" y="0px"
	 viewBox="0 0 512 512" enable-background="new 0 0 512 512" xml:space="preserve">
<g>
	<path fill="#FFFFFF" d="M201.3,464.38c-32.12,0.53-58.18-10.89-81.28-30.45c-9.55-8.08-16.76-17.88-22.9-28.58
		c-1.59-2.78-3.5-3.58-6.53-3.51c-13.49,0.28-26.24-2.29-37.16-10.83c-3.34-2.61-6.93-5.17-6.92-10.17c0-1.16-1.21-1.55-2.11-1.98
		c-10.33-4.87-19.15-11.88-27.24-19.75C9.43,351.55,3.6,342.6,0.37,332.14c-1.1-3.55,0.27-5.79,4.02-6.13
		c23.81-2.11,43.3-13.68,61.42-28.1c5.28-4.2,8.9-9.91,11.54-16.06c9.45-22.03,22.89-41.36,39.74-58.28
		c12.83-12.89,27.06-24.13,42.7-33.47c3.01-1.8,3.9-3.29,2.1-6.59c-1.99-3.64-3.36-7.62-4.91-11.48c-2.56-6.39-1.14-9.95,5.14-12.99
		c6.03-2.91,12.44-4.49,19.04-5.57c15-2.47,29.79-1.71,44.46,2.23c4.29,1.15,4.11,0.87,4.68-3.61c1.05-8.3,3.89-16.17,7.11-23.86
		c7.41-17.64,17.75-33.36,31.27-46.93c1.52-1.52,1.77-2.65,0.66-4.62c-2.39-4.24-0.81-8.83,3.53-11.11
		c1.39-0.73,2.73-1.32,3.74-2.71c2.78-3.8,6.93-4.68,11.01-2.24c1.82,1.09,3.07,1.09,4.81-0.11c10.89-7.48,22.35-13.95,34.56-19.04
		c4.35-1.81,5.18-1.27,4.98,3.52c-0.75,18.06-5.2,35.34-11.16,52.31c-4.41,12.56-9.19,24.94-16.06,36.4
		c-3.42,5.7-7.14,11.21-11.12,16.55c-0.63,0.85-1.85,1.69-1.09,2.93c0.81,1.32,2.14,0.78,3.37,0.55c16.47-3.1,32.68-1.98,48.63,3.05
		c2.03,0.64,4.03,1.47,5.93,2.44c6.3,3.23,7.45,6.31,4.83,12.8c-1.64,4.07-3.23,8.18-5.18,12.11c-1.25,2.52-1.03,3.97,1.46,5.49
		c7.4,4.51,14.61,9.32,21.46,14.67c23.3,18.17,42.59,39.77,56.32,66.07c2.86,5.48,5.26,11.21,8.13,16.69
		c4.92,9.37,13.65,14.82,22.01,20.53c8.01,5.48,16.56,9.98,25.66,13.49c6.92,2.67,14.17,3.57,21.35,4.78
		c5.05,0.85,6.52,2.53,4.8,7.51c-3.89,11.22-10.6,20.53-19.39,28.45c-7.05,6.35-14.2,12.49-22.99,16.39
		c-2.27,1.01-3.51,2.51-3.89,5.3c-0.48,3.5-3.52,5.68-6.25,7.66c-10,7.23-21.34,10.43-33.56,10.81c-0.79,0.02-1.6,0.1-2.36-0.03
		c-4.29-0.73-6.73,1.25-8.84,4.91c-15.17,26.37-38.18,42.92-66.6,52.51c-15.66,5.28-31.77,5.94-48.05,4.34
		c-2.2-0.22-4.23,0.13-6.27,0.88c-14.32,5.3-28.98,7.74-44.35,6.66c-11.89-0.84-23.36-3.22-34.75-6.45
		C209.38,463.46,204.59,464.72,201.3,464.38z"/>
</g>
</svg>
